<svg xmlns="http://www.w3.org/2000/svg" viewBox="0 0 100 100">
  <rect width="100" height="100" fill="#1a1a1a" rx="20"/>
  <g transform="translate(50, 50)">
    <!-- Gear/Cog Shape -->
    <path d="M 0,-24 L 4,-20 L 4,-12 L 12,-12 L 12,-4 L 20,-4 L 24,0 L 20,4 L 12,4 L 12,12 L 4,12 L 4,20 L 0,24 L -4,20 L -4,12 L -12,12 L -12,4 L -20,4 L -24,0 L -20,-4 L -12,-4 L -12,-12 L -4,-12 L -4,-20 Z" 
          fill="none" 
          stroke="#10b981" 
          stroke-width="3"/>
    
    <!-- Inner Circle -->
    <circle cx="0" cy="0" r="10" fill="none" stroke="#10b981" stroke-width="3"/>
    
    <!-- Center Dot -->
    <circle cx="0" cy="0" r="4" fill="#10b981"/>
    
    <!-- Gear Teeth (outer) -->
    <g stroke="#10b981" stroke-width="2.5" fill="none">
      <line x1="0" y1="-32" x2="0" y2="-24"/>
      <line x1="22.6" y1="-22.6" x2="17" y2="-17"/>
      <line x1="32" y1="0" x2="24" y2="0"/>
      <line x1="22.6" y1="22.6" x2="17" y2="17"/>
      <line x1="0" y1="32" x2="0" y2="24"/>
      <line x1="-22.6" y1="22.6" x2="-17" y2="17"/>
      <line x1="-32" y1="0" x2="-24" y2="0"/>
      <line x1="-22.6" y1="-22.6" x2="-17" y2="-17"/>
    </g>
  </g>
</svg>

